<svg xmlns="http://www.w3.org/2000/svg" viewBox="0 0 512 512" width="512" height="512">
  <rect width="512" height="512" fill="#2E2B5F"/>
  <svg x="76.8" y="189.0623" width="358.4" height="133.8754" viewBox="0 0 854.000000 319.000000" preserveAspectRatio="xMidYMid meet">
    <g transform="translate(0.000000,319.000000) scale(0.100000,-0.100000)" fill="#FFFFFF" stroke="none">
      <path d="M971 2969 c-124 -23 -222 -71 -293 -142 -47 -46 -208 -290 -208 -314
      0 -5 -12 -25 -26 -44 -45 -59 -141 -269 -173 -379 -51 -176 -64 -275 -58 -450
      3 -112 10 -176 25 -230 25 -93 89 -259 108 -281 8 -8 14 -20 14 -25 0 -14 68
      -112 124 -179 172 -207 369 -311 609 -323 219 -10 415 59 577 204 177 157 289
      346 355 597 97 370 27 807 -178 1112 -69 102 -214 243 -322 313 -102 66 -280
      128 -395 137 -36 3 -76 7 -90 9 -14 2 -45 -1 -69 -5z m207 -155 c99 -20 139
      -38 249 -112 226 -152 299 -230 389 -417 76 -157 88 -210 81 -375 -6 -149 -26
      -247 -99 -475 -91 -281 -275 -581 -418 -680 -85 -59 -283 -74 -426 -32 -122
      35 -270 128 -335 210 -47 61 -149 244 -173 313 -16 44 -43 106 -61 139 -47 85
      -59 160 -52 323 7 164 29 243 118 431 32 68 64 142 70 165 6 23 30 66 53 96
      23 30 61 82 83 115 22 33 58 76 79 96 22 19 67 65 101 101 108 114 179 135
      341 102z"/>
      <path d="M3065 2873 c-22 -3 -44 -8 -49 -13 -4 -4 -10 -37 -12 -72 -2 -34 -17
      -146 -33 -248 -43 -261 -61 -430 -67 -620 -7 -225 -34 -378 -99 -566 -76 -217
      -100 -329 -85 -397 15 -70 69 -151 120 -177 86 -44 363 -59 789 -44 168 6 314
      14 323 18 20 9 48 49 48 69 0 7 -10 23 -23 35 -20 19 -34 21 -172 22 -83 0
      -278 1 -435 3 l-285 2 -57 27 -58 27 0 273 c0 200 4 289 14 333 27 113 107
      548 126 684 23 164 50 461 50 553 0 67 -15 100 -43 96 -7 -1 -30 -3 -52 -5z"/>
      <path d="M5423 2670 c-31 -13 -30 -65 2 -136 14 -30 25 -59 25 -64 0 -9 37
      -92 96 -215 13 -28 24 -54 24 -58 0 -4 16 -41 35 -83 19 -41 35 -81 35 -88 0
      -6 7 -21 15 -33 8 -11 27 -54 42 -94 14 -41 29 -76 33 -79 3 -3 14 -27 24 -55
      17 -47 30 -77 89 -205 13 -30 33 -77 43 -105 10 -27 21 -52 24 -55 3 -3 12
      -21 19 -40 21 -55 69 -160 101 -222 17 -31 30 -62 30 -68 0 -6 18 -38 40 -71
      22 -33 40 -63 40 -67 0 -4 22 -22 48 -39 79 -54 143 -42 207 36 41 51 74 124
      95 214 12 50 26 99 30 108 5 9 18 76 30 150 12 74 26 143 30 154 5 11 18 92
      30 180 11 88 25 167 30 176 4 9 18 94 30 190 12 96 26 183 30 194 5 11 11 50
      14 86 3 36 10 78 17 93 11 22 10 29 -3 42 -36 36 -73 -12 -125 -161 -32 -95
      -91 -382 -109 -535 -18 -149 -83 -454 -123 -571 -15 -46 -45 -117 -65 -158
      -43 -85 -43 -85 -101 19 -79 139 -118 226 -156 341 -22 69 -75 192 -125 292
      -48 94 -102 212 -121 262 -20 49 -47 113 -61 140 -46 91 -123 278 -159 385
      -46 138 -54 150 -101 149 -20 0 -47 -4 -59 -9z"/>
      <path d="M4607 2523 c-20 -35 -21 -106 -10 -1388 5 -690 5 -700 26 -722 26
      -29 48 -29 74 -1 19 20 22 44 32 208 6 102 12 424 13 715 1 446 -1 551 -15
      660 -9 72 -22 202 -28 291 -12 187 -25 238 -62 242 -14 2 -27 0 -30 -5z"/>
      <path d="M7639 2455 c-75 -63 -164 -185 -194 -269 -12 -34 -27 -72 -32 -86 -6
      -14 -19 -67 -29 -117 -10 -51 -21 -93 -25 -93 -4 0 -17 -66 -29 -147 -12 -82
      -26 -156 -31 -165 -5 -10 -9 -30 -9 -45 0 -39 -10 -49 -52 -57 -48 -9 -49 -26
      -3 -26 32 0 35 -2 35 -31 0 -50 -21 -223 -30 -244 -5 -11 -19 -126 -31 -255
      -12 -129 -25 -237 -29 -240 -7 -5 -34 -229 -33 -269 1 -37 26 -55 67 -47 19 4
      38 11 41 15 3 5 12 71 21 148 9 76 20 147 25 158 4 11 18 121 29 245 12 124
      25 234 30 245 5 11 14 75 21 143 l13 122 28 0 c15 0 28 -4 28 -10 0 -13 312
      -14 326 -1 5 5 65 10 134 12 l124 4 23 -95 c12 -52 30 -158 38 -235 19 -173
      31 -269 55 -456 11 -80 24 -205 30 -278 10 -135 17 -164 45 -175 26 -10 51 10
      70 56 20 52 40 368 30 508 -7 112 -66 500 -93 616 l-19 81 31 9 c45 13 58 55
      27 88 -13 14 -37 26 -53 28 -29 3 -30 4 -68 153 -48 185 -81 272 -172 445
      -106 204 -172 281 -254 294 -37 7 -45 4 -85 -29z m51 -175 c0 -5 8 -10 18 -10
      21 0 38 -29 110 -180 110 -233 145 -317 168 -409 13 -51 24 -97 24 -102 0 -5
      -11 -9 -24 -9 -14 0 -28 -4 -31 -10 -3 -5 -32 -10 -63 -10 -68 0 -400 -27
      -448 -36 -33 -6 -34 -6 -34 29 0 19 4 37 8 39 4 2 18 69 31 151 13 81 28 147
      32 147 5 0 9 10 9 21 0 28 40 191 49 204 5 6 11 21 14 36 9 37 59 108 93 129
      34 22 44 24 44 10z"/>
    </g>
  </svg>
</svg>
